<svg width="572" height="508" viewBox="0 0 572 508" fill="none" xmlns="http://www.w3.org/2000/svg">
<g filter="url(#filter0_d_36_100)">
<path d="M81.5999 349.6C73.3332 349.6 65.9999 347.6 59.5999 343.6C53.1999 339.6 49.9999 332.933 49.9999 323.6C49.9999 308.933 53.0666 294 59.1999 278.8C65.5999 263.6 73.3332 248.667 82.3999 234C91.7332 219.067 100.933 204.533 110 190.4C119.333 176.267 127.067 162.8 133.2 150C139.6 137.2 142.8 125.333 142.8 114.4C142.8 105.6 140.667 101.2 136.4 101.2C133.467 101.2 130.133 103.6 126.4 108.4C122.667 112.933 120 119.733 118.4 128.8L114 128C114 112.8 117.6 100 124.8 89.6C132 78.9333 141.2 70.9333 152.4 65.6C163.6 60.2667 175.067 57.6 186.8 57.6C200.4 57.6 213.067 61.4667 224.8 69.2C236.8 76.9333 245.067 89.2 249.6 106C251.467 112.667 252.8 120.133 253.6 128.4C254.667 136.667 255.333 143.867 255.6 150C255.867 155.867 256 158.8 256 158.8C256.533 180.4 256.933 198.667 257.2 213.6C257.733 228.533 258.533 241.067 259.6 251.2C260.667 261.333 262.133 269.867 264 276.8C265.867 283.467 268.267 288.933 271.2 293.2C274.4 297.2 278.4 299.2 283.2 299.2C287.733 299.2 291.6 297.867 294.8 295.2C298.267 292.533 300.533 290 301.6 287.6L304.4 289.6C304.4 301.867 302 312.533 297.2 321.6C292.4 330.667 286.133 337.6 278.4 342.4C270.667 347.2 262.533 349.6 254 349.6C245.733 349.6 237.6 347.2 229.6 342.4C221.867 337.333 215.067 329.6 209.2 319.2C203.333 308.8 199.467 295.333 197.6 278.8C189.333 278.267 181.2 277.867 173.2 277.6C165.467 277.067 158.4 276.8 152 276.8C147.733 276.8 143.6 276.933 139.6 277.2C135.867 277.2 132.133 277.333 128.4 277.6C126 285.867 124 294.267 122.4 302.8C121.067 311.067 120.4 319.2 120.4 327.2C120.4 333.333 116.4 338.667 108.4 343.2C100.4 347.467 91.4666 349.6 81.5999 349.6ZM141.6 240.4C148.267 238.533 155.333 237.333 162.8 236.8C170.267 236 178.267 235.6 186.8 235.6H195.6C195.067 215.867 194.267 195.6 193.2 174.8C192.4 154 189.067 134.667 183.2 116.8C181.067 136 175.733 156.133 167.2 177.2C158.667 198.267 150.133 219.333 141.6 240.4ZM343.653 428C336.986 428 330.586 426.267 324.453 422.8C318.586 419.333 313.653 413.733 309.653 406C305.92 398.267 304.053 387.867 304.053 374.8C304.053 362.267 305.653 348.667 308.853 334C312.32 319.333 316.186 304.667 320.453 290C324.72 275.067 328.453 260.933 331.653 247.6C335.12 234.267 336.853 222.4 336.853 212C336.853 204.267 335.786 199.067 333.653 196.4C331.52 193.467 328.986 192 326.053 192C323.386 192 320.72 192.8 318.053 194.4C315.386 196 313.12 197.867 311.253 200L308.453 198.4C308.453 189.067 311.12 180.533 316.453 172.8C322.053 164.8 329.12 158.4 337.653 153.6C346.186 148.8 354.986 146.4 364.053 146.4C372.853 146.4 379.92 148.667 385.253 153.2C390.586 157.467 394.586 163.067 397.253 170C400.186 176.933 401.92 184.4 402.453 192.4C412.586 176.4 423.653 164.533 435.653 156.8C447.653 149.067 458.986 145.2 469.653 145.2C484.053 145.2 496.186 152 506.053 165.6C516.186 179.2 521.253 200.267 521.253 228.8C521.253 255.467 516.986 277.867 508.453 296C499.92 313.867 489.12 327.333 476.053 336.4C463.253 345.2 450.186 349.6 436.853 349.6C425.386 349.6 414.72 346.267 404.853 339.6C395.253 332.667 387.786 322.667 382.453 309.6C380.053 320.533 377.92 331.333 376.053 342C374.453 352.667 373.653 363.067 373.653 373.2C373.653 378.8 373.92 384.267 374.453 389.6C375.253 394.933 376.453 400.267 378.053 405.6V408C374.586 414.667 369.653 419.6 363.253 422.8C357.12 426.267 350.586 428 343.653 428ZM417.253 310.8C423.653 310.8 429.253 308.267 434.053 303.2C438.853 298.133 442.986 291.6 446.453 283.6C449.92 275.333 452.453 266.533 454.053 257.2C455.92 247.867 456.853 238.8 456.853 230C456.853 218.8 455.386 209.333 452.453 201.6C449.52 193.6 444.986 189.6 438.853 189.6C431.12 189.6 422.453 197.467 412.853 213.2C403.253 228.667 395.786 252.267 390.453 284C392.853 292.267 396.453 298.8 401.253 303.6C406.053 308.4 411.386 310.8 417.253 310.8Z" fill="url(#paint0_linear_36_100)"/>
</g>
<rect width="342" height="2" transform="translate(117.4 452)" fill="url(#paint1_linear_36_100)"/>
<path d="M181.694 488V473.455H191.012V475.663H184.329V479.612H190.373V481.821H184.329V488H181.694ZM202.963 488V473.455H208.418C209.535 473.455 210.473 473.649 211.231 474.037C211.993 474.425 212.568 474.97 212.956 475.67C213.349 476.366 213.546 477.179 213.546 478.107C213.546 479.039 213.347 479.849 212.949 480.536C212.556 481.217 211.976 481.745 211.209 482.119C210.442 482.489 209.5 482.673 208.383 482.673H204.498V480.486H208.027C208.681 480.486 209.216 480.396 209.633 480.216C210.049 480.031 210.357 479.764 210.556 479.413C210.759 479.058 210.861 478.623 210.861 478.107C210.861 477.59 210.759 477.15 210.556 476.786C210.352 476.416 210.042 476.137 209.625 475.947C209.209 475.753 208.671 475.656 208.013 475.656H205.598V488H202.963ZM210.478 481.409L214.079 488H211.138L207.601 481.409H210.478ZM227.39 488H224.577L229.698 473.455H232.951L238.079 488H235.266L231.381 476.438H231.268L227.39 488ZM227.482 482.297H235.153V484.413H227.482V482.297ZM249.545 473.455H252.77L257.088 483.994H257.259L261.577 473.455H264.801V488H262.273V478.007H262.138L258.118 487.957H256.229L252.209 477.986H252.074V488H249.545V473.455ZM277.221 488V473.455H286.682V475.663H279.856V479.612H286.191V481.821H279.856V485.791H286.738V488H277.221ZM301.982 488L297.876 473.455H300.71L303.331 484.143H303.466L306.264 473.455H308.842L311.648 484.151H311.776L314.396 473.455H317.23L313.125 488H310.526L307.614 477.794H307.5L304.581 488H301.982ZM340.824 480.727C340.824 482.295 340.53 483.637 339.943 484.754C339.361 485.867 338.565 486.719 337.557 487.311C336.553 487.903 335.414 488.199 334.141 488.199C332.867 488.199 331.726 487.903 330.717 487.311C329.714 486.714 328.918 485.86 328.331 484.747C327.749 483.63 327.457 482.29 327.457 480.727C327.457 479.16 327.749 477.82 328.331 476.707C328.918 475.59 329.714 474.735 330.717 474.143C331.726 473.552 332.867 473.256 334.141 473.256C335.414 473.256 336.553 473.552 337.557 474.143C338.565 474.735 339.361 475.59 339.943 476.707C340.53 477.82 340.824 479.16 340.824 480.727ZM338.175 480.727C338.175 479.624 338.002 478.694 337.656 477.936C337.315 477.174 336.842 476.598 336.236 476.21C335.63 475.817 334.931 475.621 334.141 475.621C333.35 475.621 332.652 475.817 332.045 476.21C331.439 476.598 330.964 477.174 330.618 477.936C330.277 478.694 330.107 479.624 330.107 480.727C330.107 481.83 330.277 482.763 330.618 483.526C330.964 484.283 331.439 484.858 332.045 485.251C332.652 485.64 333.35 485.834 334.141 485.834C334.931 485.834 335.63 485.64 336.236 485.251C336.842 484.858 337.315 484.283 337.656 483.526C338.002 482.763 338.175 481.83 338.175 480.727ZM352.866 488V473.455H358.32C359.438 473.455 360.375 473.649 361.133 474.037C361.895 474.425 362.47 474.97 362.859 475.67C363.252 476.366 363.448 477.179 363.448 478.107C363.448 479.039 363.249 479.849 362.852 480.536C362.459 481.217 361.879 481.745 361.112 482.119C360.345 482.489 359.402 482.673 358.285 482.673H354.4V480.486H357.93C358.583 480.486 359.118 480.396 359.535 480.216C359.952 480.031 360.259 479.764 360.458 479.413C360.662 479.058 360.764 478.623 360.764 478.107C360.764 477.59 360.662 477.15 360.458 476.786C360.255 476.416 359.944 476.137 359.528 475.947C359.111 475.753 358.574 475.656 357.916 475.656H355.501V488H352.866ZM360.38 481.409L363.981 488H361.041L357.504 481.409H360.38ZM375.424 488V473.455H378.059V480.138H378.237L383.912 473.455H387.129L381.504 479.982L387.179 488H384.011L379.672 481.764L378.059 483.668V488H375.424Z" fill="#155DFC"/>
<defs>
<filter id="filter0_d_36_100" x="-5.6001" y="-13" width="588" height="528" filterUnits="userSpaceOnUse" color-interpolation-filters="sRGB">
<feFlood flood-opacity="0" result="BackgroundImageFix"/>
<feColorMatrix in="SourceAlpha" type="matrix" values="0 0 0 0 0 0 0 0 0 0 0 0 0 0 0 0 0 0 127 0" result="hardAlpha"/>
<feOffset dy="25"/>
<feGaussianBlur stdDeviation="25"/>
<feColorMatrix type="matrix" values="0 0 0 0 0 0 0 0 0 0 0 0 0 0 0 0 0 0 0.15 0"/>
<feBlend mode="normal" in2="BackgroundImageFix" result="effect1_dropShadow_36_100"/>
<feBlend mode="normal" in="SourceGraphic" in2="effect1_dropShadow_36_100" result="shape"/>
</filter>
<linearGradient id="paint0_linear_36_100" x1="44.3999" y1="24" x2="286.381" y2="444.874" gradientUnits="userSpaceOnUse">
<stop stop-color="#155DFC"/>
<stop offset="0.5" stop-color="#2B7FFF"/>
<stop offset="1" stop-color="#00D3F2"/>
</linearGradient>
<linearGradient id="paint1_linear_36_100" x1="0" y1="1" x2="342" y2="1" gradientUnits="userSpaceOnUse">
<stop stop-opacity="0"/>
<stop offset="0.5" stop-color="#2B7FFF"/>
<stop offset="1" stop-opacity="0"/>
</linearGradient>
</defs>
</svg>
