<svg width="160" height="160" viewBox="0 0 160 160" fill="none" xmlns="http://www.w3.org/2000/svg">
<path d="M31.4688 137H27.5918V122.938H37.6895V124.734H31.4688V129.08H36.2734V130.867H31.4688V137ZM48.5293 126.717L46.6738 129.793C46.5957 129.533 46.4948 129.24 46.3711 128.914C46.2474 128.589 46.0944 128.286 45.9121 128.006C45.7298 127.719 45.5117 127.482 45.2578 127.293C45.0039 127.098 44.7109 127 44.3789 127C44.0729 127 43.806 127.078 43.5781 127.234C43.3568 127.391 43.168 127.596 43.0117 127.85C42.8555 128.097 42.7253 128.38 42.6211 128.699C42.5234 129.012 42.4453 129.331 42.3867 129.656C42.3346 129.975 42.2988 130.285 42.2793 130.584C42.2598 130.877 42.25 131.131 42.25 131.346V137H38.9395V125.721H40.209L41.5469 128.348C41.7292 127.924 41.9375 127.537 42.1719 127.186C42.4062 126.827 42.6764 126.521 42.9824 126.268C43.2884 126.007 43.6335 125.805 44.0176 125.662C44.4082 125.519 44.8477 125.447 45.3359 125.447C45.5898 125.447 45.873 125.47 46.1855 125.516C46.498 125.555 46.804 125.626 47.1035 125.73C47.403 125.828 47.6797 125.958 47.9336 126.121C48.1875 126.284 48.3861 126.482 48.5293 126.717ZM61.0391 137H57.7383V135.652C57.3477 136.186 56.8757 136.583 56.3223 136.844C55.7754 137.098 55.1732 137.225 54.5156 137.225C53.6562 137.225 52.888 137.072 52.2109 136.766C51.5339 136.46 50.9609 136.043 50.4922 135.516C50.0234 134.982 49.6654 134.357 49.418 133.641C49.1706 132.924 49.0469 132.156 49.0469 131.336C49.0469 130.516 49.1706 129.747 49.418 129.031C49.6654 128.315 50.0234 127.693 50.4922 127.166C50.9609 126.632 51.5339 126.212 52.2109 125.906C52.888 125.6 53.6562 125.447 54.5156 125.447C54.9518 125.447 55.3652 125.512 55.7559 125.643C56.153 125.773 56.5143 125.958 56.8398 126.199C57.1719 126.434 57.4616 126.72 57.709 127.059C57.9629 127.391 58.1615 127.762 58.3047 128.172L59.7695 125.721H61.0391V137ZM57.7188 131.336C57.7188 131.043 57.7025 130.734 57.6699 130.408C57.6439 130.083 57.5951 129.76 57.5234 129.441C57.4518 129.122 57.3509 128.82 57.2207 128.533C57.097 128.24 56.9342 127.983 56.7324 127.762C56.5371 127.534 56.2995 127.355 56.0195 127.225C55.7396 127.094 55.4141 127.029 55.043 127.029C54.6719 127.029 54.3496 127.098 54.0762 127.234C53.8027 127.365 53.5684 127.544 53.373 127.771C53.1777 127.993 53.015 128.25 52.8848 128.543C52.7611 128.836 52.6634 129.142 52.5918 129.461C52.5202 129.78 52.4681 130.102 52.4355 130.428C52.4095 130.747 52.3965 131.049 52.3965 131.336C52.3965 131.622 52.4095 131.928 52.4355 132.254C52.4681 132.579 52.5202 132.902 52.5918 133.221C52.6634 133.54 52.7611 133.846 52.8848 134.139C53.015 134.432 53.1777 134.692 53.373 134.92C53.5684 135.141 53.8027 135.32 54.0762 135.457C54.3496 135.587 54.6719 135.652 55.043 135.652C55.3815 135.652 55.681 135.584 55.9414 135.447C56.2083 135.304 56.4395 135.115 56.6348 134.881C56.8366 134.646 57.0059 134.38 57.1426 134.08C57.2793 133.781 57.39 133.471 57.4746 133.152C57.5592 132.833 57.6211 132.518 57.6602 132.205C57.6992 131.886 57.7188 131.596 57.7188 131.336ZM81.2539 130.418C81.2539 131.193 81.1628 132 80.9805 132.84C80.7982 133.68 80.541 134.5 80.209 135.301C79.8835 136.095 79.4896 136.847 79.0273 137.557C78.5651 138.266 78.0508 138.882 77.4844 139.402L76.2441 138.729C76.4329 138.39 76.6055 138.009 76.7617 137.586C76.918 137.163 77.0612 136.717 77.1914 136.248C77.3216 135.779 77.4355 135.298 77.5332 134.803C77.6309 134.308 77.7122 133.816 77.7773 133.328C77.849 132.833 77.901 132.355 77.9336 131.893C77.9661 131.43 77.9824 130.997 77.9824 130.594C77.9824 130.366 77.9759 130.118 77.9629 129.852C77.9499 129.585 77.9206 129.318 77.875 129.051C77.8359 128.784 77.7741 128.53 77.6895 128.289C77.6048 128.042 77.4876 127.824 77.3379 127.635C77.1947 127.439 77.0124 127.286 76.791 127.176C76.5762 127.059 76.3158 127 76.0098 127C75.7103 127 75.4531 127.081 75.2383 127.244C75.0299 127.4 74.8509 127.605 74.7012 127.859C74.5514 128.113 74.431 128.4 74.3398 128.719C74.2552 129.038 74.1901 129.36 74.1445 129.686C74.099 130.005 74.0664 130.311 74.0469 130.604C74.0339 130.896 74.0273 131.144 74.0273 131.346V137H70.7363V131.746C70.7363 131.518 70.7396 131.245 70.7461 130.926C70.7526 130.6 70.7428 130.262 70.7168 129.91C70.6973 129.559 70.6549 129.21 70.5898 128.865C70.5312 128.514 70.4336 128.201 70.2969 127.928C70.1667 127.654 69.9876 127.433 69.7598 127.264C69.5319 127.088 69.2454 127 68.9004 127C68.6074 127 68.36 127.081 68.1582 127.244C67.9629 127.407 67.7969 127.618 67.6602 127.879C67.5299 128.133 67.4258 128.423 67.3477 128.748C67.276 129.067 67.2207 129.389 67.1816 129.715C67.1491 130.034 67.1296 130.34 67.123 130.633C67.1165 130.919 67.1133 131.157 67.1133 131.346V137H63.8027V125.721H65.0723L66.2832 128.348C66.5566 127.436 66.9863 126.727 67.5723 126.219C68.1647 125.704 68.9492 125.447 69.9258 125.447C70.8047 125.447 71.5339 125.63 72.1133 125.994C72.6927 126.359 73.1484 126.951 73.4805 127.771C73.6693 127.413 73.8776 127.091 74.1055 126.805C74.3398 126.518 74.597 126.274 74.877 126.072C75.1634 125.87 75.4792 125.717 75.8242 125.613C76.1693 125.503 76.5501 125.447 76.9668 125.447C77.735 125.447 78.3893 125.574 78.9297 125.828C79.4766 126.076 79.9225 126.421 80.2676 126.863C80.6126 127.306 80.8633 127.833 81.0195 128.445C81.1758 129.051 81.2539 129.708 81.2539 130.418ZM86.166 131.648C86.5697 131.74 86.9733 131.811 87.377 131.863C87.7806 131.915 88.1875 131.941 88.5977 131.941C89.0273 131.941 89.4245 131.902 89.7891 131.824C90.1602 131.74 90.4792 131.603 90.7461 131.414C91.0195 131.219 91.2344 130.962 91.3906 130.643C91.5469 130.324 91.625 129.926 91.625 129.451C91.625 129.067 91.5729 128.715 91.4688 128.396C91.3646 128.077 91.2083 127.804 91 127.576C90.7982 127.348 90.5475 127.173 90.248 127.049C89.9486 126.919 89.6003 126.854 89.2031 126.854C88.832 126.854 88.4967 126.922 88.1973 127.059C87.9043 127.195 87.6439 127.381 87.416 127.615C87.1947 127.843 87.0026 128.11 86.8398 128.416C86.6836 128.722 86.5534 129.041 86.4492 129.373C86.3451 129.705 86.2702 130.04 86.2246 130.379C86.179 130.717 86.1562 131.036 86.1562 131.336C86.1562 131.388 86.1562 131.44 86.1562 131.492C86.1562 131.544 86.1595 131.596 86.166 131.648ZM94.3008 129.422C94.3008 129.884 94.2259 130.298 94.0762 130.662C93.9264 131.02 93.7214 131.336 93.4609 131.609C93.207 131.883 92.9108 132.114 92.5723 132.303C92.2337 132.492 91.8724 132.648 91.4883 132.771C91.1042 132.889 90.707 132.973 90.2969 133.025C89.8932 133.077 89.4993 133.104 89.1152 133.104C88.627 133.104 88.1452 133.071 87.6699 133.006C87.1947 132.934 86.7259 132.824 86.2637 132.674C86.3353 133.104 86.4492 133.514 86.6055 133.904C86.7617 134.288 86.9701 134.627 87.2305 134.92C87.4909 135.206 87.8099 135.434 88.1875 135.604C88.5716 135.773 89.0241 135.857 89.5449 135.857C89.89 135.857 90.2188 135.805 90.5312 135.701C90.8438 135.597 91.1302 135.451 91.3906 135.262C91.651 135.073 91.8789 134.848 92.0742 134.588C92.276 134.327 92.4388 134.038 92.5625 133.719L93.9883 134.246C93.7734 134.76 93.4772 135.206 93.0996 135.584C92.7285 135.955 92.3053 136.264 91.8301 136.512C91.3613 136.753 90.86 136.932 90.3262 137.049C89.7988 137.166 89.2747 137.225 88.7539 137.225C87.8945 137.225 87.1003 137.081 86.3711 136.795C85.6419 136.502 85.0137 136.095 84.4863 135.574C83.959 135.053 83.5456 134.432 83.2461 133.709C82.9466 132.986 82.7969 132.195 82.7969 131.336C82.7969 130.477 82.9466 129.686 83.2461 128.963C83.5456 128.24 83.959 127.618 84.4863 127.098C85.0137 126.577 85.6419 126.173 86.3711 125.887C87.1003 125.594 87.8945 125.447 88.7539 125.447C89.1706 125.447 89.597 125.477 90.0332 125.535C90.4694 125.594 90.8926 125.688 91.3027 125.818C91.7129 125.942 92.1003 126.105 92.4648 126.307C92.8294 126.508 93.1452 126.759 93.4121 127.059C93.6855 127.352 93.9004 127.693 94.0566 128.084C94.2194 128.475 94.3008 128.921 94.3008 129.422ZM101.439 137H98.4707L95.3848 125.721H98.6855L100.619 133.631L102.23 125.721H105.199L107.172 133.846L109.076 125.721H111.361L107.943 137H104.975L103.305 130.145L101.439 137ZM124.779 131.336C124.779 131.922 124.701 132.472 124.545 132.986C124.389 133.501 124.171 133.976 123.891 134.412C123.617 134.848 123.285 135.242 122.895 135.594C122.504 135.939 122.074 136.232 121.605 136.473C121.143 136.714 120.645 136.899 120.111 137.029C119.584 137.16 119.04 137.225 118.48 137.225C117.921 137.225 117.377 137.16 116.85 137.029C116.322 136.899 115.824 136.714 115.355 136.473C114.893 136.232 114.467 135.939 114.076 135.594C113.686 135.242 113.35 134.848 113.07 134.412C112.797 133.976 112.582 133.501 112.426 132.986C112.27 132.465 112.191 131.915 112.191 131.336C112.191 130.757 112.27 130.21 112.426 129.695C112.582 129.174 112.797 128.696 113.07 128.26C113.35 127.824 113.686 127.433 114.076 127.088C114.467 126.736 114.893 126.44 115.355 126.199C115.824 125.958 116.322 125.773 116.85 125.643C117.377 125.512 117.921 125.447 118.48 125.447C119.04 125.447 119.584 125.512 120.111 125.643C120.645 125.773 121.143 125.958 121.605 126.199C122.074 126.44 122.504 126.736 122.895 127.088C123.285 127.433 123.617 127.824 123.891 128.26C124.171 128.696 124.389 129.174 124.545 129.695C124.701 130.21 124.779 130.757 124.779 131.336ZM121.42 131.336C121.42 131.023 121.4 130.695 121.361 130.35C121.329 129.998 121.27 129.656 121.186 129.324C121.101 128.986 120.984 128.663 120.834 128.357C120.691 128.045 120.512 127.775 120.297 127.547C120.082 127.312 119.825 127.127 119.525 126.99C119.226 126.847 118.878 126.775 118.48 126.775C118.103 126.775 117.768 126.847 117.475 126.99C117.182 127.133 116.924 127.326 116.703 127.566C116.488 127.801 116.306 128.074 116.156 128.387C116.013 128.699 115.896 129.025 115.805 129.363C115.714 129.695 115.648 130.034 115.609 130.379C115.57 130.717 115.551 131.036 115.551 131.336C115.551 131.635 115.57 131.958 115.609 132.303C115.648 132.641 115.714 132.98 115.805 133.318C115.896 133.657 116.013 133.982 116.156 134.295C116.306 134.601 116.488 134.874 116.703 135.115C116.924 135.35 117.182 135.538 117.475 135.682C117.768 135.825 118.103 135.896 118.48 135.896C118.871 135.896 119.216 135.828 119.516 135.691C119.815 135.548 120.072 135.359 120.287 135.125C120.508 134.891 120.691 134.62 120.834 134.314C120.977 134.008 121.091 133.686 121.176 133.348C121.267 133.009 121.329 132.667 121.361 132.322C121.4 131.977 121.42 131.648 121.42 131.336ZM136.459 126.717L134.604 129.793C134.525 129.533 134.424 129.24 134.301 128.914C134.177 128.589 134.024 128.286 133.842 128.006C133.66 127.719 133.441 127.482 133.188 127.293C132.934 127.098 132.641 127 132.309 127C132.003 127 131.736 127.078 131.508 127.234C131.286 127.391 131.098 127.596 130.941 127.85C130.785 128.097 130.655 128.38 130.551 128.699C130.453 129.012 130.375 129.331 130.316 129.656C130.264 129.975 130.229 130.285 130.209 130.584C130.189 130.877 130.18 131.131 130.18 131.346V137H126.869V125.721H128.139L129.477 128.348C129.659 127.924 129.867 127.537 130.102 127.186C130.336 126.827 130.606 126.521 130.912 126.268C131.218 126.007 131.563 125.805 131.947 125.662C132.338 125.519 132.777 125.447 133.266 125.447C133.52 125.447 133.803 125.47 134.115 125.516C134.428 125.555 134.734 125.626 135.033 125.73C135.333 125.828 135.609 125.958 135.863 126.121C136.117 126.284 136.316 126.482 136.459 126.717ZM141.146 137H137.846V121.57H141.146V131.697C141.687 131.307 142.217 130.877 142.738 130.408C143.266 129.939 143.767 129.448 144.242 128.934C144.717 128.413 145.157 127.882 145.561 127.342C145.971 126.801 146.329 126.261 146.635 125.721H148.881C148.425 126.489 147.885 127.257 147.26 128.025C146.635 128.787 145.954 129.516 145.219 130.213L148.92 137H145.277L142.65 132.293C142.162 132.625 141.661 132.931 141.146 133.211V137Z" fill="#87CEFA"/>
<path d="M126.738 97.6719C126.738 99.3125 126.491 100.849 125.996 102.281C125.501 103.714 124.785 104.964 123.848 106.031C122.91 107.086 121.764 107.919 120.41 108.531C119.056 109.143 117.52 109.449 115.801 109.449C114.486 109.449 113.275 109.195 112.168 108.688C111.074 108.167 110.137 107.372 109.355 106.305V119.41H102.754V86.4414H105.293L108.223 91.3438C108.509 90.5234 108.9 89.7812 109.395 89.1172C109.902 88.4401 110.482 87.8672 111.133 87.3984C111.797 86.9167 112.52 86.5456 113.301 86.2852C114.095 86.0247 114.928 85.8945 115.801 85.8945C117.52 85.8945 119.056 86.2005 120.41 86.8125C121.764 87.4245 122.91 88.2643 123.848 89.332C124.785 90.3867 125.501 91.6302 125.996 93.0625C126.491 94.4948 126.738 96.0312 126.738 97.6719ZM120.039 97.6719C120.039 97.099 120.007 96.4935 119.941 95.8555C119.889 95.2044 119.792 94.5599 119.648 93.9219C119.505 93.2839 119.303 92.6719 119.043 92.0859C118.796 91.5 118.477 90.9857 118.086 90.543C117.695 90.0872 117.22 89.7292 116.66 89.4688C116.113 89.1953 115.475 89.0586 114.746 89.0586C113.991 89.0586 113.333 89.1888 112.773 89.4492C112.227 89.7096 111.751 90.0677 111.348 90.5234C110.957 90.9661 110.632 91.4805 110.371 92.0664C110.124 92.6393 109.928 93.2448 109.785 93.8828C109.642 94.5208 109.538 95.1654 109.473 95.8164C109.421 96.4674 109.395 97.0859 109.395 97.6719C109.395 98.1927 109.434 98.7721 109.512 99.4102C109.59 100.035 109.714 100.667 109.883 101.305C110.052 101.943 110.273 102.561 110.547 103.16C110.82 103.759 111.152 104.293 111.543 104.762C111.947 105.23 112.409 105.608 112.93 105.895C113.464 106.168 114.069 106.305 114.746 106.305C115.488 106.305 116.133 106.174 116.68 105.914C117.227 105.641 117.695 105.283 118.086 104.84C118.477 104.384 118.796 103.863 119.043 103.277C119.303 102.691 119.505 102.079 119.648 101.441C119.792 100.803 119.889 100.159 119.941 99.5078C120.007 98.8568 120.039 98.2448 120.039 97.6719Z" fill="url(#paint0_linear_20_62)"/>
<path d="M105.875 65.9375V67.125C105.792 70.625 105.417 74.25 104.75 78C104.125 81.75 103.229 85.5 102.062 89.25C100.896 93 99.5 96.7083 97.875 100.375C96.25 104.042 94.4167 107.542 92.375 110.875C90.375 114.25 88.2083 117.396 85.875 120.312C83.5417 123.271 81.0833 125.875 78.5 128.125L69.1875 122.75C70.6458 120.292 71.9583 117.604 73.125 114.688C74.3333 111.812 75.4167 108.792 76.375 105.625C77.3333 102.458 78.1458 99.2083 78.8125 95.875C79.5208 92.5417 80.1042 89.2292 80.5625 85.9375C81.0208 82.6458 81.3542 79.4167 81.5625 76.25C81.8125 73.0417 81.9375 70 81.9375 67.125C81.9375 64.875 81.9167 62.3333 81.875 59.5C81.875 56.625 81.7083 53.7083 81.375 50.75C81.0833 47.7917 80.5833 44.9167 79.875 42.125C79.1667 39.2917 78.1042 36.7708 76.6875 34.5625C75.3125 32.3542 73.5208 30.5833 71.3125 29.25C69.1458 27.9167 66.4375 27.25 63.1875 27.25C60.3125 27.25 57.8333 27.75 55.75 28.75C53.7083 29.7083 51.9583 31.0208 50.5 32.6875C49.0833 34.3125 47.9375 36.2083 47.0625 38.375C46.2292 40.5417 45.5625 42.8333 45.0625 45.25C44.6042 47.625 44.2917 50.0417 44.125 52.5C44 54.9167 43.9375 57.2083 43.9375 59.375V76.8125H70.875V87.125H43.9375V109H19.125V63.25C19.125 56.7083 20.1667 50.625 22.25 45C24.3333 39.375 27.2708 34.5 31.0625 30.375C34.8958 26.2083 39.4792 22.9583 44.8125 20.625C50.1875 18.25 56.1667 17.0625 62.75 17.0625C67.2083 17.0625 71.375 17.7083 75.25 19C79.1667 20.25 82.7292 22 85.9375 24.25C89.1458 26.4583 92 29.1042 94.5 32.1875C97.0417 35.2292 99.1458 38.5625 100.812 42.1875C102.521 45.8125 103.812 49.6458 104.688 53.6875C105.562 57.7292 105.958 61.8125 105.875 65.9375Z" fill="url(#paint1_linear_20_62)"/>
<defs>
<linearGradient id="paint0_linear_20_62" x1="114.5" y1="75" x2="114.5" y2="120" gradientUnits="userSpaceOnUse">
<stop stop-color="#1E90FF"/>
<stop offset="1" stop-color="#87CEFA"/>
</linearGradient>
<linearGradient id="paint1_linear_20_62" x1="61" y1="0" x2="61" y2="145" gradientUnits="userSpaceOnUse">
<stop stop-color="#1E90FF"/>
<stop offset="1" stop-color="#87CEFA"/>
</linearGradient>
</defs>
</svg>
